<?xml version="1.0" encoding="utf-8"?>
<!-- Generator: Adobe Illustrator 16.0.0, SVG Export Plug-In . SVG Version: 6.00 Build 0)  -->
<!DOCTYPE svg PUBLIC "-//W3C//DTD SVG 1.1//EN" "http://www.w3.org/Graphics/SVG/1.1/DTD/svg11.dtd">
<svg version="1.1" id="Layer_1" xmlns="http://www.w3.org/2000/svg" xmlns:xlink="http://www.w3.org/1999/xlink" x="0px" y="0px"
	 width="284.433px" height="284.434px" viewBox="0 0 284.433 284.434" enable-background="new 0 0 284.433 284.434"
	 xml:space="preserve">
<circle opacity="0.5" fill="#AEE5F1" cx="142.217" cy="142.217" r="142.217"/>
<g>
	<defs>
		<circle id="SVGID_1_" cx="142.217" cy="142.217" r="142.217"/>
	</defs>
	<clipPath id="SVGID_2_">
		<use xlink:href="#SVGID_1_"  overflow="visible"/>
	</clipPath>
	<g clip-path="url(#SVGID_2_)">
		<rect x="124.47" y="220.932" fill="#FBC6A1" width="36.254" height="29.287"/>
		<path fill="#E4A277" d="M160.589,232.496c0,0-19.116,4.381-29.14,1.521c-10.024-2.858,14.903,9.542,25.239,7.515
			C161.101,240.664,160.589,232.496,160.589,232.496z"/>
		<path fill="#FBC6A1" d="M212.471,122.563c-1.256,38.764-18.023,69.837-65.12,69.837s-76.78-31.436-76.745-70.213
			c0.053-58.701,29.648-70.214,76.745-70.214S213.965,76.398,212.471,122.563z"/>
		<path fill="#FBC6A1" d="M203.182,169.847c0,35.433-24.484,63.319-60.137,63.319c-37.089,0-62.258-33.9-62.258-63.319
			c0-30.542,27.484-55.299,62.258-55.299C177.818,114.548,203.182,139.305,203.182,169.847z"/>
		<path fill="#FBC6A1" d="M203.19,155.936c-1.196,14.014-3.467,23.081,10.84,27.25c6.946,2.023,13.384-8.109,19.068-23.469
			c4.735-12.796,3.167-27.646-14.738-27.277C211.123,132.59,204.385,141.922,203.19,155.936z"/>
		<path fill="#FBC6A1" d="M81.836,155.024c2.083,13.788-2.211,26.265-9.591,27.864c-7.381,1.602-16.736-7.777-20.478-22.064
			c-3.502-13.371-5.645-26.801,12.932-27.865C72.208,132.529,79.752,141.236,81.836,155.024z"/>
		<path opacity="0.7" fill="#E4A277" d="M217.536,148l-7.236,19.383c7.531,9.954,11.911,5.629,16.443-13.155
			C230.335,139.332,217.536,148,217.536,148z"/>
		<path opacity="0.7" fill="#E4A277" d="M67.379,148l7.831,19.383c-8.15,9.954-12.89,5.629-17.793-13.155
			C53.529,139.332,67.379,148,67.379,148z"/>
		<path fill="#331D0B" d="M216.111,79.5c0,0-0.287-3.975-4.521-5.301"/>
		<path fill="#331D0B" d="M216.142,72.509c0,0-3.464-4.474-7.944-4.315"/>
		<path fill="#331D0B" d="M91.714,67.682c-18.273-21.899-11.534-43.577,0-42.639c8.069,0.657,15.681,26.105,15.681,26.105
			s-9.827-29.174-3.246-34.244c8.141-6.275,36.264,20.352,36.264,20.352l-19.577-10.987c0,0,40.217-7.698,46.613-5.644
			c11.257,3.617,27.74,23.318,30.26,33.939c3.047,12.84-20.402,19.965-52.023,20.095c-31.621,0.13-50.085-6.978-50.085-6.978
			S92.31,68.396,91.714,67.682z"/>
		<path fill="#331D0B" d="M132.799,64.834c0,0-15.784,14.039-14.072,15.224c1.71,1.185,9.094-6.376,13.955-5.683
			C139.474,75.344,141.002,65.521,132.799,64.834z"/>
		<path fill="#331D0B" d="M212.569,140.286c0,0-2.253,19.288-7.744,23.062c-6.849,4.705,3.549-71.63-8.251-86.498
			c-13.106-16.51-36.358-15.55-36.358-15.55s5.996-15.119,37.087-5.2c34.342,10.955,19.51,35.313,19.231,44.674
			C215.699,128.713,218.978,136.646,212.569,140.286z"/>
		<path fill="#331D0B" d="M81.3,183.772c0,0,3.5-4.89,8.061-4.677"/>
		<path fill="#331D0B" d="M101.825,216.396c0,0,2.158-6.721,6.61-7.718"/>
		<path fill="#331D0B" d="M85.701,196.908c0,0,3.601-6.094,8.167-6.105"/>
		<path fill="#331D0B" d="M93.321,208.765c0,0,2.602-6.565,7.11-7.272"/>
		<path fill="#331D0B" d="M123.278,229.624c0,0-0.922-6.989,2.688-9.741"/>
		<path fill="#331D0B" d="M111.769,224.294c0,0,0.809-7.004,4.984-8.822"/>
		<path fill="#331D0B" d="M202.951,180.706c0,0-0.916-4.274-5.402-5.114"/>
		<path fill="#331D0B" d="M201.563,187.939c0,0-2.122-5.605-6.587-6.541"/>
		<path fill="#331D0B" d="M182.888,219.994c0,0-1.425-6.908-5.745-8.363"/>
		<path fill="#331D0B" d="M197.683,200.268c0,0-2.852-6.465-7.385-7.004"/>
		<path fill="#331D0B" d="M191.088,210.509c0,0-2.263-6.687-6.73-7.618"/>
		<path fill="#331D0B" d="M162.22,230.104c0,0,0.354-7.039-3.467-9.501"/>
		<path fill="#331D0B" d="M173.141,226.363c0,0-1.15-6.957-5.409-8.576"/>
		<path fill="#331D0B" d="M134.78,232.988c0,0-0.921-6.99,2.689-9.742"/>
		<path fill="#331D0B" d="M150.026,233.039c0,0,0.921-6.989-2.689-9.742"/>
		<path fill="#331D0B" d="M194.373,204.763c0,0-1.249-3.452-5.034-4.181"/>
		<path fill="#331D0B" d="M199.393,193.855c0,0-1.249-3.454-5.034-4.182"/>
		<path fill="#331D0B" d="M187.12,214.962c0,0-0.482-3.635-4.027-5.13"/>
		<path fill="#331D0B" d="M178.307,223.002c0,0-0.329-3.652-3.806-5.291"/>
		<path fill="#331D0B" d="M167.445,228.957c0,0,0.901-3.557-1.843-6.225"/>
		<path fill="#331D0B" d="M162.841,187.317c0,0-0.569-3.308-3.729-4.182"/>
		<path fill="#331D0B" d="M146.848,191.309c0,0,1.212-3.242-1.316-4.694"/>
		<path fill="#331D0B" d="M153.738,189.121c0,0,0.337-3.32-2.542-4.502"/>
		<path fill="#331D0B" d="M157.877,186.811c0,0-0.097-1.729-2.668-2.588"/>
		<path fill="#331D0B" d="M150.29,189.65c0,0,0.945-1.631-0.935-3.006"/>
		<path fill="#331D0B" d="M121.596,186.777c0,0,0.569-3.307,3.729-4.182"/>
		<path fill="#331D0B" d="M138.917,190.77c0,0-1.212-3.242,1.316-4.695"/>
		<path fill="#331D0B" d="M129.959,188.546c0,0-0.337-3.319,2.543-4.502"/>
		<path fill="#331D0B" d="M125.82,186.983c0,0,0.097-1.728,2.668-2.587"/>
		<path fill="#331D0B" d="M134.413,189.371c0,0-0.945-1.63,0.935-3.005"/>
		<path fill="#331D0B" d="M146.163,207.56c0,0,1.668-3.337-0.589-4.559"/>
		<path fill="#331D0B" d="M139.726,207.53c0,0-1.298-3.257,0.679-4.538"/>
		<path fill="#331D0B" d="M142.904,209.25c0,0,1.668-3.339-0.589-4.559"/>
		<path fill="#331D0B" d="M156.655,231.645c0,0,0.901-3.557-1.843-6.225"/>
		<path fill="#331D0B" d="M80.926,176.564c0,0,1.918-3.939,6.478-3.709"/>
		<path fill="#331D0B" d="M89.784,202.855c0,0,0.976-3.537,4.693-4.547"/>
		<path fill="#331D0B" d="M84.166,189.848c0,0,1.497-3.357,5.325-3.815"/>
		<path fill="#331D0B" d="M98.203,212.398c0,0,0.482-3.637,4.027-5.131"/>
		<path fill="#331D0B" d="M106.422,219.646c0,0,0.482-3.635,4.027-5.13"/>
		<path fill="#331D0B" d="M117.764,226.773c0,0-0.901-3.557,1.843-6.225"/>
		<path fill="#331D0B" d="M128.923,231.28c0,0-0.901-3.556,1.843-6.224"/>
		<path fill="#331D0B" d="M142.374,233.035c0,0,2.308-2.877,0.923-6.42"/>
		<path fill="#331D0B" d="M71.642,140.35c0,0,2.252,19.289,7.744,23.063c6.849,4.705-3.549-71.631,8.252-86.498
			c13.105-16.512,36.358-15.551,36.358-15.551s-5.997-15.119-37.088-5.199c-34.342,10.955-19.509,35.313-19.23,44.673
			C68.511,128.777,65.232,136.711,71.642,140.35z"/>
		<ellipse fill="#FFFBD6" cx="167.277" cy="142.217" rx="19.469" ry="18.214"/>
		<ellipse fill="#331D0B" cx="167.173" cy="142.74" rx="12.502" ry="11.953"/>
		<ellipse fill="#FFFBD6" cx="117.939" cy="142.526" rx="19.469" ry="18.214"/>
		<ellipse fill="#331D0B" cx="118.308" cy="142.526" rx="12.502" ry="11.954"/>
		<path fill="#331D0B" d="M195.938,119.453c-7.599-8.356-43.525-27.064-45.381-6.713c-1.316,14.447,23.792,3.553,38.912,8.832
			C199.643,125.125,197.19,120.832,195.938,119.453z"/>
		<path fill="#331D0B" d="M88.988,122.064c6.894-8.779,41.258-29.99,44.841-10.281c2.543,13.99-23.506,5.422-38.188,11.817
			C85.762,127.904,87.851,123.513,88.988,122.064z"/>
		<path fill="none" stroke="#331D0B" stroke-width="2.1985" stroke-linecap="round" stroke-miterlimit="10" d="M126.418,190.273
			c0,0,17.91,10.917,33.351-1.463"/>
		<path opacity="0.5" fill="#E4A277" d="M139.002,135.131c0,0,4.023,21.188-4.997,26.621c-1.533,0.922-4.028,1.719-5.056,4.997
			c-1.466,4.679,0.874,8.063,0.874,8.063s7.348,3.68,12.424,3.68c4.39,0,12.398-3.729,12.398-3.729s3.159-4.92,1.127-8.238
			c-1.649-2.693-2.717-3.389-4.435-4.598c-8.659-6.094-4.664-27.544-4.787-26.797H139.002z"/>
		<path opacity="0.5" fill="#BE8560" d="M130.127,168.576c-3.048-1.18-1.579,4.749-0.304,5.651
			c2.671,1.895,8.195,4.265,12.228,4.265c3.908,0,10.138-2.36,12.395-3.675c2.008-1.17,2.901-7.327,0.945-6.723
			C144.113,171.584,142.997,173.552,130.127,168.576z"/>
		<g>
			<g>
				<path fill="#331D0B" d="M147.496,176.483c2.403-0.854,4.335-2.748,6.75-3.66c0.186-0.071,0.302-0.324,0.126-0.479
					c-0.882-0.78-2.503,0.418-3.262,0.87c-1.38,0.822-2.672,1.743-3.915,2.753C146.956,176.162,147.212,176.584,147.496,176.483
					L147.496,176.483z"/>
			</g>
		</g>
		<g>
			<g>
				<path fill="#331D0B" d="M138.303,176.325c-1.168-0.95-2.377-1.799-3.658-2.597c-0.781-0.487-2.587-1.851-3.519-1.027
					c-0.175,0.155-0.06,0.408,0.126,0.479c2.416,0.913,4.348,2.805,6.75,3.661C138.286,176.942,138.542,176.519,138.303,176.325
					L138.303,176.325z"/>
			</g>
		</g>
		<path fill="#EE5E5E" d="M197.105,315.914h-91.973l-53.54,1.234c0,0,5.137-73.333,91.129-73.333
			c88.825,0,88.825,72.099,88.825,72.099H197.105z"/>
		<path fill="#FBC6A1" d="M161.117,252.422c0,5.313-8.359,9.617-18.672,9.617c-10.312,0-18.672-4.305-18.672-9.617
			c0-19.952,9.035-15.775,18.672-11.57C153.751,245.787,161.117,235.576,161.117,252.422z"/>
	</g>
</g>
</svg>
